<svg width="24" height="24" viewBox="0 0 24 24" fill="none" xmlns="http://www.w3.org/2000/svg">
<g clip-path="url(#clip0_2_710)">
<path d="M12.0765 3.57074H12.21C13.443 3.57524 19.6905 3.62024 21.375 4.07324C21.8842 4.21149 22.3483 4.48097 22.7207 4.85475C23.0932 5.22853 23.361 5.69352 23.4975 6.20324C23.649 6.77324 23.7555 7.52774 23.8275 8.30624L23.8425 8.46224L23.8755 8.85224L23.8875 9.00824C23.985 10.3792 23.997 11.6632 23.9985 11.9437V12.0562C23.997 12.3472 23.9835 13.7182 23.8755 15.1462L23.8635 15.3037L23.85 15.4597C23.775 16.3177 23.664 17.1697 23.4975 17.7967C23.3615 18.3067 23.0938 18.7719 22.7212 19.1457C22.3487 19.5196 21.8844 19.7889 21.375 19.9267C19.635 20.3947 13.0215 20.4277 12.105 20.4292H11.892C11.4285 20.4292 9.5115 20.4202 7.5015 20.3512L7.2465 20.3422L7.116 20.3362L6.8595 20.3257L6.603 20.3152C4.938 20.2417 3.3525 20.1232 2.622 19.9252C2.11273 19.7875 1.6486 19.5184 1.27609 19.1449C0.903575 18.7713 0.63577 18.3064 0.4995 17.7967C0.333 17.1712 0.222 16.3177 0.147 15.4597L0.135 15.3022L0.123 15.1462C0.0489714 14.1298 0.0079498 13.1113 0 12.0922L0 11.9077C0.003 11.5852 0.015 10.4707 0.096 9.24074L0.1065 9.08624L0.111 9.00824L0.123 8.85224L0.156 8.46224L0.171 8.30624C0.243 7.52774 0.3495 6.77174 0.501 6.20324C0.63704 5.69331 0.904743 5.22811 1.27727 4.85426C1.6498 4.48042 2.11405 4.21108 2.6235 4.07324C3.354 3.87824 4.9395 3.75824 6.6045 3.68324L6.8595 3.67274L7.1175 3.66374L7.2465 3.65924L7.503 3.64874C8.93056 3.6028 10.3587 3.5773 11.787 3.57224H12.0765V3.57074ZM9.6 8.38574V15.6127L15.8355 12.0007L9.6 8.38574Z" fill="white"/>
</g>
<defs>
<clipPath id="clip0_2_710">
<rect width="23.9985" height="24" fill="white"/>
</clipPath>
</defs>
</svg>
